<svg xmlns="http://www.w3.org/2000/svg" xmlns:xlink="http://www.w3.org/1999/xlink" width="257" zoomAndPan="magnify" viewBox="0 0 192.75 67.499998" height="90" preserveAspectRatio="xMidYMid meet" version="1.0"><defs><g/></defs><g fill="#2b7620" fill-opacity="1"><g transform="translate(100.048714, 62.118442)"><g><path d="M 3.515625 -9.421875 L 3.515625 0 L 1.4375 0 L 1.4375 -9.515625 C 1.4375 -10.328125 1.671875 -10.976562 2.140625 -11.46875 C 2.617188 -11.957031 3.34375 -12.203125 4.3125 -12.203125 C 5.164062 -12.203125 5.84375 -12 6.34375 -11.59375 C 6.84375 -11.1875 7.175781 -10.601562 7.34375 -9.84375 L 9.03125 -2.5 C 9.144531 -2.050781 9.410156 -1.828125 9.828125 -1.828125 C 10.253906 -1.828125 10.519531 -2.050781 10.625 -2.5 L 12.3125 -9.84375 C 12.476562 -10.601562 12.796875 -11.1875 13.265625 -11.59375 C 13.734375 -12 14.398438 -12.203125 15.265625 -12.203125 C 16.234375 -12.203125 16.953125 -11.957031 17.421875 -11.46875 C 17.898438 -10.976562 18.140625 -10.328125 18.140625 -9.515625 L 18.140625 0 L 16.0625 0 L 16.0625 -9.421875 C 16.0625 -9.648438 15.984375 -9.832031 15.828125 -9.96875 C 15.679688 -10.101562 15.472656 -10.171875 15.203125 -10.171875 C 14.953125 -10.171875 14.757812 -10.113281 14.625 -10 C 14.5 -9.894531 14.414062 -9.742188 14.375 -9.546875 L 12.65625 -2.203125 C 12.457031 -1.410156 12.140625 -0.804688 11.703125 -0.390625 C 11.265625 0.015625 10.632812 0.21875 9.8125 0.21875 C 8.976562 0.21875 8.328125 0.0078125 7.859375 -0.40625 C 7.398438 -0.832031 7.082031 -1.429688 6.90625 -2.203125 L 5.203125 -9.546875 C 5.160156 -9.742188 5.066406 -9.894531 4.921875 -10 C 4.785156 -10.113281 4.601562 -10.171875 4.375 -10.171875 C 4.101562 -10.171875 3.890625 -10.101562 3.734375 -9.96875 C 3.585938 -9.832031 3.515625 -9.648438 3.515625 -9.421875 Z M 3.515625 -9.421875 "/></g></g></g><g fill="#2b7620" fill-opacity="1"><g transform="translate(119.622134, 62.118442)"><g><path d="M 4.96875 -9.375 L 6.953125 -9.375 C 8.191406 -9.375 9.175781 -8.988281 9.90625 -8.21875 C 10.644531 -7.457031 11.015625 -6.28125 11.015625 -4.6875 C 11.015625 -3.113281 10.644531 -1.9375 9.90625 -1.15625 C 9.175781 -0.382812 8.191406 0 6.953125 0 L 4.96875 0 C 3.71875 0 2.726562 -0.382812 2 -1.15625 C 1.269531 -1.9375 0.90625 -3.113281 0.90625 -4.6875 C 0.90625 -6.28125 1.269531 -7.457031 2 -8.21875 C 2.726562 -8.988281 3.71875 -9.375 4.96875 -9.375 Z M 6.765625 -7.5625 L 5.15625 -7.5625 C 4.332031 -7.5625 3.734375 -7.335938 3.359375 -6.890625 C 2.992188 -6.441406 2.8125 -5.707031 2.8125 -4.6875 C 2.8125 -3.6875 2.992188 -2.957031 3.359375 -2.5 C 3.734375 -2.050781 4.332031 -1.828125 5.15625 -1.828125 L 6.765625 -1.828125 C 7.578125 -1.828125 8.171875 -2.050781 8.546875 -2.5 C 8.921875 -2.957031 9.109375 -3.6875 9.109375 -4.6875 C 9.109375 -5.707031 8.921875 -6.441406 8.546875 -6.890625 C 8.171875 -7.335938 7.578125 -7.5625 6.765625 -7.5625 Z M 6.765625 -7.5625 "/></g></g></g><g fill="#2b7620" fill-opacity="1"><g transform="translate(131.540252, 62.118442)"><g><path d="M 1.34375 -13.453125 L 3.234375 -13.453125 L 3.234375 -9.375 L 7.390625 -9.375 C 8.628906 -9.375 9.613281 -8.988281 10.34375 -8.21875 C 11.070312 -7.457031 11.4375 -6.28125 11.4375 -4.6875 C 11.4375 -3.113281 11.070312 -1.9375 10.34375 -1.15625 C 9.613281 -0.382812 8.628906 0 7.390625 0 L 4.796875 0 C 3.671875 0 2.8125 -0.328125 2.21875 -0.984375 C 1.632812 -1.648438 1.34375 -2.660156 1.34375 -4.015625 Z M 7.1875 -7.5625 L 3.234375 -7.5625 L 3.234375 -4.109375 C 3.234375 -3.304688 3.394531 -2.722656 3.71875 -2.359375 C 4.039062 -2.003906 4.582031 -1.828125 5.34375 -1.828125 L 7.1875 -1.828125 C 8.007812 -1.828125 8.609375 -2.050781 8.984375 -2.5 C 9.359375 -2.957031 9.546875 -3.6875 9.546875 -4.6875 C 9.546875 -5.707031 9.359375 -6.441406 8.984375 -6.890625 C 8.609375 -7.335938 8.007812 -7.5625 7.1875 -7.5625 Z M 7.1875 -7.5625 "/></g></g></g><g fill="#2b7620" fill-opacity="1"><g transform="translate(143.88465, 62.118442)"><g><path d="M 1.34375 -9.375 L 3.234375 -9.375 L 3.234375 0 L 1.34375 0 Z M 1.34375 -12.921875 L 3.25 -12.921875 L 3.25 -10.734375 L 1.34375 -10.734375 Z M 1.34375 -12.921875 "/></g></g></g><g fill="#2b7620" fill-opacity="1"><g transform="translate(148.467176, 62.118442)"><g><path d="M 1.34375 -13.453125 L 3.234375 -13.453125 L 3.234375 0 L 1.34375 0 Z M 1.34375 -13.453125 "/></g></g></g><g fill="#2b7620" fill-opacity="1"><g transform="translate(153.049702, 62.118442)"><g><path d="M 1.34375 -9.375 L 3.234375 -9.375 L 3.234375 0 L 1.34375 0 Z M 1.34375 -12.921875 L 3.25 -12.921875 L 3.25 -10.734375 L 1.34375 -10.734375 Z M 1.34375 -12.921875 "/></g></g></g><g fill="#2b7620" fill-opacity="1"><g transform="translate(157.632229, 62.118442)"><g><path d="M 0.40625 -9.375 L 1.6875 -9.375 L 1.6875 -11.59375 L 3.59375 -11.59375 L 3.59375 -9.375 L 6.1875 -9.375 L 6.1875 -7.5625 L 3.59375 -7.5625 L 3.59375 -3.125 C 3.59375 -2.601562 3.691406 -2.238281 3.890625 -2.03125 C 4.085938 -1.820312 4.40625 -1.71875 4.84375 -1.71875 L 6.140625 -1.71875 L 6.140625 0 L 4.453125 0 C 3.484375 0 2.78125 -0.234375 2.34375 -0.703125 C 1.90625 -1.171875 1.6875 -2.015625 1.6875 -3.234375 L 1.6875 -7.5625 L 0.40625 -7.5625 Z M 0.40625 -9.375 "/></g></g></g><g fill="#2b7620" fill-opacity="1"><g transform="translate(164.292874, 62.118442)"><g><path d="M 9.15625 -9.375 L 11.15625 -9.375 L 5.5 3.765625 L 3.484375 3.765625 L 5.234375 -0.34375 C 4.703125 -0.34375 4.316406 -0.429688 4.078125 -0.609375 C 3.847656 -0.796875 3.648438 -1.09375 3.484375 -1.5 L 0.34375 -9.375 L 2.328125 -9.375 L 5.15625 -2.390625 C 5.207031 -2.234375 5.269531 -2.128906 5.34375 -2.078125 C 5.414062 -2.023438 5.539062 -2 5.71875 -2 L 5.96875 -2 Z M 9.15625 -9.375 "/></g></g></g><g fill="#206016" fill-opacity="1"><g transform="translate(8.488164, 43.260121)"><g><path d="M 9.375 -25.171875 L 9.375 0 L 3.8125 0 L 3.8125 -25.453125 C 3.8125 -27.523438 4.410156 -29.195312 5.609375 -30.46875 C 6.804688 -31.75 8.644531 -32.390625 11.125 -32.390625 C 13.351562 -32.390625 15.03125 -31.863281 16.15625 -30.8125 C 17.289062 -29.757812 18.191406 -28.320312 18.859375 -26.5 L 28.140625 -6.171875 C 28.328125 -5.796875 28.585938 -5.484375 28.921875 -5.234375 C 29.253906 -4.984375 29.671875 -4.859375 30.171875 -4.859375 C 30.765625 -4.859375 31.226562 -5.019531 31.5625 -5.34375 C 31.894531 -5.675781 32.0625 -6.109375 32.0625 -6.640625 L 32.0625 -31.8125 L 37.671875 -31.8125 L 37.671875 -6.40625 C 37.671875 -4.300781 37.0625 -2.613281 35.84375 -1.34375 C 34.632812 -0.0703125 32.804688 0.5625 30.359375 0.5625 C 28.160156 0.5625 26.476562 0.0351562 25.3125 -1.015625 C 24.144531 -2.066406 23.234375 -3.503906 22.578125 -5.328125 L 13.296875 -25.640625 C 12.890625 -26.554688 12.226562 -27.015625 11.3125 -27.015625 C 10.019531 -27.015625 9.375 -26.398438 9.375 -25.171875 Z M 9.375 -25.171875 "/></g></g></g><g fill="#2b7620" fill-opacity="1"><g transform="translate(49.922279, 43.260121)"><g><path d="M 17.109375 -25.59375 L 7.03125 0 L 0.890625 0 L 12.0625 -28.28125 C 12.664062 -29.757812 13.515625 -30.8125 14.609375 -31.4375 C 15.710938 -32.070312 17.097656 -32.390625 18.765625 -32.390625 C 20.429688 -32.390625 21.804688 -32.070312 22.890625 -31.4375 C 23.972656 -30.8125 24.796875 -29.757812 25.359375 -28.28125 L 36.109375 0 L 29.9375 0 L 20.265625 -25.59375 C 19.984375 -26.320312 19.46875 -26.6875 18.71875 -26.6875 C 17.957031 -26.6875 17.421875 -26.320312 17.109375 -25.59375 Z M 17.109375 -25.59375 "/></g></g></g><g fill="#409b32" fill-opacity="1"><g transform="translate(86.879493, 43.260121)"><g><path d="M 9.328125 -24.984375 L 9.328125 0 L 3.8125 0 L 3.8125 -25.265625 C 3.8125 -27.398438 4.441406 -29.117188 5.703125 -30.421875 C 6.960938 -31.734375 8.878906 -32.390625 11.453125 -32.390625 C 13.710938 -32.390625 15.503906 -31.847656 16.828125 -30.765625 C 18.148438 -29.679688 19.03125 -28.128906 19.46875 -26.109375 L 23.953125 -6.640625 C 24.265625 -5.453125 24.96875 -4.859375 26.0625 -4.859375 C 27.195312 -4.859375 27.90625 -5.453125 28.1875 -6.640625 L 32.671875 -26.109375 C 33.109375 -28.128906 33.945312 -29.679688 35.1875 -30.765625 C 36.425781 -31.847656 38.195312 -32.390625 40.5 -32.390625 C 43.070312 -32.390625 44.984375 -31.734375 46.234375 -30.421875 C 47.492188 -29.117188 48.125 -27.398438 48.125 -25.265625 L 48.125 0 L 42.609375 0 L 42.609375 -24.984375 C 42.609375 -25.609375 42.410156 -26.101562 42.015625 -26.46875 C 41.628906 -26.832031 41.078125 -27.015625 40.359375 -27.015625 C 39.691406 -27.015625 39.1875 -26.863281 38.84375 -26.5625 C 38.5 -26.257812 38.265625 -25.84375 38.140625 -25.3125 L 33.5625 -5.84375 C 33.0625 -3.738281 32.226562 -2.144531 31.0625 -1.0625 C 29.90625 0.0195312 28.222656 0.5625 26.015625 0.5625 C 23.816406 0.5625 22.101562 0.00390625 20.875 -1.109375 C 19.65625 -2.222656 18.8125 -3.800781 18.34375 -5.84375 L 13.8125 -25.3125 C 13.6875 -25.84375 13.441406 -26.257812 13.078125 -26.5625 C 12.722656 -26.863281 12.226562 -27.015625 11.59375 -27.015625 C 10.875 -27.015625 10.316406 -26.832031 9.921875 -26.46875 C 9.523438 -26.101562 9.328125 -25.609375 9.328125 -24.984375 Z M 9.328125 -24.984375 "/></g></g></g><g fill="#60bd52" fill-opacity="1"><g transform="translate(138.822261, 43.260121)"><g><path d="M 17.109375 -25.59375 L 7.03125 0 L 0.890625 0 L 12.0625 -28.28125 C 12.664062 -29.757812 13.515625 -30.8125 14.609375 -31.4375 C 15.710938 -32.070312 17.097656 -32.390625 18.765625 -32.390625 C 20.429688 -32.390625 21.804688 -32.070312 22.890625 -31.4375 C 23.972656 -30.8125 24.796875 -29.757812 25.359375 -28.28125 L 36.109375 0 L 29.9375 0 L 20.265625 -25.59375 C 19.984375 -26.320312 19.46875 -26.6875 18.71875 -26.6875 C 17.957031 -26.6875 17.421875 -26.320312 17.109375 -25.59375 Z M 17.109375 -25.59375 "/></g></g></g></svg>